<?xml version="1.0" encoding="UTF-8" standalone="no"?>
<!DOCTYPE svg PUBLIC "-//W3C//DTD SVG 1.1//EN" "http://www.w3.org/Graphics/SVG/1.1/DTD/svg11.dtd">
<svg width="100%" height="100%" viewBox="0 0 71 75" version="1.1" xmlns="http://www.w3.org/2000/svg" xmlns:xlink="http://www.w3.org/1999/xlink" xml:space="preserve" xmlns:serif="http://www.serif.com/" style="fill-rule:evenodd;clip-rule:evenodd;stroke-linecap:round;stroke-linejoin:round;stroke-miterlimit:1.5;">
    <g transform="matrix(1,0,0,1,-1526,-200)">
        <g transform="matrix(1.05229,0,0,1,-81.384,-36.6667)">
            <path d="M1556.99,238.462C1559.64,236.929 1562.86,236.929 1565.52,238.462C1571.76,242.068 1583.34,248.756 1589.77,252.468C1592.61,254.107 1594.38,257.242 1594.38,260.648C1594.38,267.909 1594.38,280.591 1594.38,287.852C1594.38,291.258 1592.61,294.393 1589.77,296.032C1583.34,299.744 1571.76,306.432 1565.52,310.038C1562.86,311.571 1559.64,311.571 1556.99,310.038C1550.74,306.432 1539.16,299.744 1532.73,296.032C1529.89,294.393 1528.13,291.258 1528.13,287.852C1528.13,280.591 1528.13,267.909 1528.13,260.648C1528.13,257.242 1529.89,254.107 1532.73,252.468C1539.16,248.756 1550.74,242.068 1556.99,238.462Z" style="fill:rgb(236,0,140);"/>
        </g>
        <g transform="matrix(0.86,0,0,0.7069,218.18,67.4819)">
            <path d="M1587,223.78C1587,222.778 1586.67,221.816 1586.09,221.107C1585.51,220.398 1584.72,220 1583.89,220C1574.93,220 1549.07,220 1540.11,220C1539.28,220 1538.49,220.398 1537.91,221.107C1537.33,221.816 1537,222.778 1537,223.78C1537,230.322 1537,243.678 1537,250.22C1537,251.222 1537.33,252.184 1537.91,252.893C1538.49,253.602 1539.28,254 1540.11,254C1549.07,254 1574.93,254 1583.89,254C1584.72,254 1585.51,253.602 1586.09,252.893C1586.67,252.184 1587,251.222 1587,250.22C1587,243.678 1587,230.322 1587,223.78Z" style="fill:white;"/>
        </g>
        <g transform="matrix(7.25023e-17,-0.730769,1,6.12323e-17,1335.5,1468.78)">
            <path d="M1651,225L1677,242L1703,225L1677,231L1651,225Z" style="fill:white;"/>
        </g>
        <g transform="matrix(1,0,0,1,0,1)">
            <path d="M1545,228L1577.51,228" style="fill:none;stroke:rgb(236,0,140);stroke-width:2.67px;"/>
        </g>
        <g transform="matrix(1,0,0,1,0,7)">
            <path d="M1545,228L1569.01,228" style="fill:none;stroke:rgb(236,0,140);stroke-width:2.67px;"/>
        </g>
    </g>
</svg>
